<svg width="30" height="30" viewBox="0 0 30 30" fill="none" xmlns="http://www.w3.org/2000/svg">
<path d="M8.41421 5.58579C7.63316 4.80474 6.36683 4.80474 5.58579 5.58579C4.80474 6.36684 4.80474 7.63317 5.58579 8.41421L12.1716 15L5.58579 21.5858C4.80474 22.3668 4.80474 23.6332 5.58579 24.4142C6.36684 25.1953 7.63317 25.1953 8.41421 24.4142L15 17.8284L21.5858 24.4142C22.3668 25.1953 23.6332 25.1953 24.4142 24.4142C25.1953 23.6332 25.1953 22.3668 24.4142 21.5858L17.8284 15L24.4142 8.41421C25.1953 7.63317 25.1953 6.36684 24.4142 5.58579C23.6332 4.80474 22.3668 4.80474 21.5858 5.58579L15 12.1716L8.41421 5.58579Z" fill="#3E3E3E"/>
</svg>
