<svg width="30" height="30" viewBox="0 0 30 30" fill="none" xmlns="http://www.w3.org/2000/svg">
<path d="M10.1005 22.0711C9.31944 22.8521 9.31944 24.1184 10.1005 24.8995C10.8815 25.6805 12.1479 25.6805 12.9289 24.8995L10.1005 22.0711ZM20 15L21.4142 16.4142C22.1952 15.6332 22.1952 14.3668 21.4142 13.5858L20 15ZM12.9289 5.10051C12.1479 4.31946 10.8815 4.31946 10.1005 5.10051C9.31944 5.88155 9.31944 7.14788 10.1005 7.92893L12.9289 5.10051ZM12.9289 24.8995L21.4142 16.4142L18.5858 13.5858L10.1005 22.0711L12.9289 24.8995ZM21.4142 13.5858L12.9289 5.10051L10.1005 7.92893L18.5858 16.4142L21.4142 13.5858Z" fill="#3E3E3E"/>
</svg>
