<svg width="30" height="30" viewBox="0 0 30 30" fill="none" xmlns="http://www.w3.org/2000/svg">
<path d="M19.9289 7.92893C20.71 7.14788 20.71 5.88155 19.9289 5.1005C19.1479 4.31946 17.8816 4.31946 17.1005 5.1005L19.9289 7.92893ZM10.0294 15L8.61522 13.5858C7.83418 14.3668 7.83418 15.6332 8.61522 16.4142L10.0294 15ZM17.1005 24.8995C17.8816 25.6805 19.1479 25.6805 19.9289 24.8995C20.71 24.1184 20.71 22.8521 19.9289 22.0711L17.1005 24.8995ZM17.1005 5.1005L8.61522 13.5858L11.4437 16.4142L19.9289 7.92893L17.1005 5.1005ZM8.61522 16.4142L17.1005 24.8995L19.9289 22.0711L11.4437 13.5858L8.61522 16.4142Z" fill="#3E3E3E"/>
</svg>
