<svg width="30" height="30" viewBox="0 0 30 30" fill="none" xmlns="http://www.w3.org/2000/svg">
<path d="M14.5 2C7.55556 2 2 7.55556 2 14.5C2 21.4444 7.55556 27 14.5 27C15.6111 27 16.5833 26.0278 16.5833 24.9167C16.5833 24.3611 16.4444 23.9444 16.0278 23.5278C15.75 23.1111 15.4722 22.6944 15.4722 22.1389C15.4722 21.0278 16.4445 20.0556 17.5556 20.0556H20.0556C23.9444 20.0556 27 17 27 13.1111C27 7 21.4444 2 14.5 2ZM6.86111 14.5C5.75 14.5 4.77778 13.5278 4.77778 12.4167C4.77778 11.3056 5.75 10.3333 6.86111 10.3333C7.97222 10.3333 8.94444 11.3056 8.94444 12.4167C8.94444 13.5278 7.97222 14.5 6.86111 14.5ZM11.0278 8.94444C9.91667 8.94444 8.94444 7.97222 8.94444 6.86111C8.94444 5.75 9.91667 4.77778 11.0278 4.77778C12.1389 4.77778 13.1111 5.75 13.1111 6.86111C13.1111 7.97222 12.1389 8.94444 11.0278 8.94444ZM17.9722 8.94444C16.8611 8.94444 15.8889 7.97222 15.8889 6.86111C15.8889 5.75 16.8611 4.77778 17.9722 4.77778C19.0833 4.77778 20.0556 5.75 20.0556 6.86111C20.0556 7.97222 19.0833 8.94444 17.9722 8.94444ZM22.1389 14.5C21.0278 14.5 20.0556 13.5278 20.0556 12.4167C20.0556 11.3056 21.0278 10.3333 22.1389 10.3333C23.25 10.3333 24.2222 11.3056 24.2222 12.4167C24.2222 13.5278 23.25 14.5 22.1389 14.5Z" fill="#3E3E3E"/>
</svg>
